<svg xmlns="http://www.w3.org/2000/svg" width="16" height="16" viewBox="0 0 16 16">
    <g>
        <path d="M14.125 1.25h-.75V0h-1.25v1.25h-8.25V0h-1.25v1.25h-.75C.841 1.25 0 2.091 0 3.125v11C0 15.159.841 16 1.875 16h12.25C15.159 16 16 15.159 16 14.125v-11c0-1.034-.841-1.875-1.875-1.875zm.625 12.875c0 .345-.28.625-.625.625H1.875c-.345 0-.625-.28-.625-.625v-8.25h13.5v8.25zm0-9.5H1.25v-1.5c0-.345.28-.625.625-.625h.75v1.25h1.25V2.5h8.25v1.25h1.25V2.5h.75c.345 0 .625.28.625.625v1.5z"/>
        <path d="M2.667 6.667H4V8H2.667zM4.667 6.667H6V8H4.667zM8 6.667H9.333V8H8zM10 6.667H11.333V8H10zM12.667 6.667H14V8H12.667zM2.667 10H4V11.333H2.667zM4.667 10H6V11.333H4.667zM8 10H9.333V11.333H8zM10 10H11.333V11.333H10zM2.667 12H4V13.333H2.667zM4.667 12H6V13.333H4.667zM8 12H9.333V13.333H8zM10 12H11.333V13.333H10zM12.667 10H14V11.333H12.667z"/>
    </g>
</svg>
