<svg xmlns="http://www.w3.org/2000/svg" xmlns:xlink="http://www.w3.org/1999/xlink" width="24" height="24" viewBox="0 0 24 24">
    <defs>
        <path id="zgmlk6vwta" d="M0 0L24 0 24 24 0 24z"/>
    </defs>
    <g fill="none" fill-rule="evenodd">
        <mask id="hqawlt9c8b" fill="#fff">
            <use xlink:href="#zgmlk6vwta"/>
        </mask>
        <path fill="#000" d="M13.932 3.863c0 1.065-.867 1.932-1.932 1.932h-.001H12c-1.065 0-1.932-.867-1.932-1.932 0-.998.762-1.822 1.735-1.921.065-.007.13-.01.197-.01 1.065 0 1.932.866 1.932 1.931m9.98 6.89l-1.967-2.82c-.096-.138-.246-.207-.396-.207-.15 0-.3.07-.396.207l-1.969 2.82c-.169.243-.083.578.181.71.19.094.43.2.706.292-.164 1.964-1.029 3.73-2.344 5.044-1.141 1.141-2.622 1.944-4.278 2.243V11.59h1.448c.534 0 .966-.433.966-.966 0-.534-.432-.966-.966-.966H13.45V7.444c1.415-.573 2.414-1.96 2.414-3.58C15.863 1.73 14.133 0 12 0 9.866 0 8.137 1.73 8.137 3.863c0 1.621.999 3.008 2.414 3.581v2.214H9.103c-.534 0-.966.432-.966.966 0 .533.432.966.966.966h1.448v7.452c-1.656-.3-3.137-1.102-4.278-2.243-1.315-1.315-2.18-3.08-2.344-5.044.275-.093.515-.198.706-.292.264-.132.35-.467.18-.71l-1.968-2.82c-.096-.138-.246-.207-.396-.207-.15 0-.3.07-.396.207l-1.968 2.82c-.169.243-.083.578.181.71.203.1.46.212.758.31.331 5.263 4.364 9.521 9.525 10.2v.578c0 .8.649 1.449 1.449 1.449s1.449-.649 1.449-1.449v-.578c2.457-.323 4.659-1.457 6.327-3.126l-.002.002c1.837-1.836 3.027-4.318 3.2-7.076.297-.098.555-.21.758-.31.264-.132.35-.467.18-.71" mask="url(#hqawlt9c8b)"/>
    </g>
</svg>
