<svg xmlns="http://www.w3.org/2000/svg" xmlns:xlink="http://www.w3.org/1999/xlink" width="24" height="24" viewBox="0 0 24 24">
    <defs>
        <path id="vluq7bx0ka" d="M0 0L24 0 24 7.792 0 7.792z"/>
    </defs>
    <g fill="none" fill-rule="evenodd">
        <g transform="translate(0 3) translate(0 9.74)">
            <mask id="jn4xpgqs7b" fill="#fff">
                <use xlink:href="#vluq7bx0ka"/>
            </mask>
            <path fill="#000" d="M23.888.369C23.75.14 23.51 0 23.25 0h-6.5c-.414 0-.75.35-.75.78 0 1.288-1.01 2.337-2.25 2.337h-13c-.276 0-.531.158-.661.411-.131.254-.116.561.037.8l2 3.117c.139.217.373.347.624.347h17.5c.284 0 .544-.168.67-.431l3-6.234c.117-.24.104-.529-.032-.758" mask="url(#jn4xpgqs7b)"/>
        </g>
        <path fill="#000" d="M22.08 5.705c0-.457-.435-.835-.96-.835-.525 0-.96.378-.96.835v3.06h1.92v-3.06zM6.72 10.957c0 .403-.323.73-.72.73-.397 0-.72-.327-.72-.73V8.522c0-.403.323-.73.72-.73.397 0 .72.327.72.73v2.435zm-2.4 0c0 .403-.323.73-.72.73-.397 0-.72-.327-.72-.73V8.522c0-.403.323-.73.72-.73.397 0 .72.327.72.73v2.435zM.96 12.661h7.68V6.818H.96v5.843zM13.92 10.957c0 .4-.326.73-.72.73-.394 0-.72-.33-.72-.73V8.522c0-.4.326-.73.72-.73.394 0 .72.33.72.73v2.435zm1.42.672c-.268-.097-.46-.37-.46-.672V8.522c0-.4.326-.73.72-.73.394 0 .72.33.72.73v1.393c.22-.117.46-.175.72-.175h1.2V6.818h-7.68v5.843h3.6c.595 0 1.094-.448 1.18-1.032zM6.72 3.165c0 .404-.323.73-.72.73-.397 0-.72-.326-.72-.73v-1.46c0-.404.323-.731.72-.731.397 0 .72.327.72.73v1.461zm-2.4 0c0 .404-.323.73-.72.73-.397 0-.72-.326-.72-.73v-1.46c0-.404.323-.731.72-.731.397 0 .72.327.72.73v1.461zM8.64.73c0-.403-.323-.73-.72-.73H.96v4.87h7.68V.73z" transform="translate(0 3)"/>
    </g>
</svg>
